<mxfile host="app.diagrams.net" modified="2021-08-21T06:47:00.961Z" agent="5.0 (Windows NT 10.0; Win64; x64) AppleWebKit/537.36 (KHTML, like Gecko) Chrome/92.0.4515.159 Safari/537.36" etag="jfnWPb5HUrWkZXRxtYif" version="14.9.8" type="github">
  <diagram id="YZDZQWJb-MKDiRxjjC_u" name="페이지-1">
    <mxGraphModel dx="1422" dy="794" grid="1" gridSize="10" guides="1" tooltips="1" connect="1" arrows="1" fold="1" page="1" pageScale="1" pageWidth="827" pageHeight="1169" math="0" shadow="0">
      <root>
        <mxCell id="0" />
        <mxCell id="1" parent="0" />
        <mxCell id="wuGBvKB_myRL55mKtQpE-1" value="&lt;font style=&quot;font-size: 20px&quot;&gt;state(initialState)&lt;/font&gt;" style="whiteSpace=wrap;html=1;aspect=fixed;" vertex="1" parent="1">
          <mxGeometry x="370" y="360" width="180" height="180" as="geometry" />
        </mxCell>
        <mxCell id="wuGBvKB_myRL55mKtQpE-2" value="&lt;font style=&quot;font-size: 20px&quot;&gt;event&lt;br&gt;(onClick, onChange ..)&lt;/font&gt;" style="ellipse;whiteSpace=wrap;html=1;" vertex="1" parent="1">
          <mxGeometry x="90" y="40" width="230" height="130" as="geometry" />
        </mxCell>
        <mxCell id="wuGBvKB_myRL55mKtQpE-20" value="" style="edgeStyle=orthogonalEdgeStyle;rounded=0;orthogonalLoop=1;jettySize=auto;html=1;" edge="1" parent="1" source="wuGBvKB_myRL55mKtQpE-4" target="wuGBvKB_myRL55mKtQpE-18">
          <mxGeometry relative="1" as="geometry" />
        </mxCell>
        <mxCell id="wuGBvKB_myRL55mKtQpE-4" value="&lt;font style=&quot;font-size: 20px&quot;&gt;Action&lt;/font&gt;" style="rounded=0;whiteSpace=wrap;html=1;" vertex="1" parent="1">
          <mxGeometry x="400" y="80" width="120" height="60" as="geometry" />
        </mxCell>
        <mxCell id="wuGBvKB_myRL55mKtQpE-9" value="" style="endArrow=classic;html=1;entryX=-0.025;entryY=0.4;entryDx=0;entryDy=0;entryPerimeter=0;" edge="1" parent="1" target="wuGBvKB_myRL55mKtQpE-4">
          <mxGeometry width="50" height="50" relative="1" as="geometry">
            <mxPoint x="320" y="104.5" as="sourcePoint" />
            <mxPoint x="380" y="104.5" as="targetPoint" />
          </mxGeometry>
        </mxCell>
        <mxCell id="wuGBvKB_myRL55mKtQpE-11" value="" style="endArrow=classic;html=1;" edge="1" parent="1">
          <mxGeometry width="50" height="50" relative="1" as="geometry">
            <mxPoint x="459.5" y="140" as="sourcePoint" />
            <mxPoint x="460" y="220" as="targetPoint" />
          </mxGeometry>
        </mxCell>
        <mxCell id="wuGBvKB_myRL55mKtQpE-16" value="&lt;span style=&quot;font-size: 20px&quot;&gt;dispatch&lt;/span&gt;" style="text;html=1;strokeColor=none;fillColor=none;align=center;verticalAlign=middle;whiteSpace=wrap;rounded=0;" vertex="1" parent="1">
          <mxGeometry x="490" y="170" width="40" height="20" as="geometry" />
        </mxCell>
        <mxCell id="wuGBvKB_myRL55mKtQpE-19" style="edgeStyle=orthogonalEdgeStyle;rounded=0;orthogonalLoop=1;jettySize=auto;html=1;exitX=0.75;exitY=0;exitDx=0;exitDy=0;" edge="1" parent="1" source="wuGBvKB_myRL55mKtQpE-18">
          <mxGeometry relative="1" as="geometry">
            <mxPoint x="490" y="240" as="targetPoint" />
          </mxGeometry>
        </mxCell>
        <mxCell id="wuGBvKB_myRL55mKtQpE-18" value="&lt;span style=&quot;font-size: 20px&quot;&gt;reducer&lt;/span&gt;" style="rounded=0;whiteSpace=wrap;html=1;" vertex="1" parent="1">
          <mxGeometry x="400" y="220" width="120" height="60" as="geometry" />
        </mxCell>
        <mxCell id="wuGBvKB_myRL55mKtQpE-21" value="" style="endArrow=classic;html=1;" edge="1" parent="1">
          <mxGeometry width="50" height="50" relative="1" as="geometry">
            <mxPoint x="459.5" y="280" as="sourcePoint" />
            <mxPoint x="460" y="360" as="targetPoint" />
          </mxGeometry>
        </mxCell>
        <mxCell id="wuGBvKB_myRL55mKtQpE-22" value="&lt;span style=&quot;font-size: 20px&quot;&gt;state 수정&lt;/span&gt;" style="text;html=1;strokeColor=none;fillColor=none;align=center;verticalAlign=middle;whiteSpace=wrap;rounded=0;" vertex="1" parent="1">
          <mxGeometry x="450" y="310" width="130" height="20" as="geometry" />
        </mxCell>
      </root>
    </mxGraphModel>
  </diagram>
</mxfile>
